<?xml version="1.0" encoding="UTF-8" standalone="no"?><!DOCTYPE svg PUBLIC "-//W3C//DTD SVG 1.1//EN" "http://www.w3.org/Graphics/SVG/1.1/DTD/svg11.dtd"><svg width="100%" height="100%" viewBox="0 0 181 180" version="1.1" xmlns="http://www.w3.org/2000/svg" xmlns:xlink="http://www.w3.org/1999/xlink" xml:space="preserve" xmlns:serif="http://www.serif.com/" style="fill-rule:evenodd;clip-rule:evenodd;stroke-linejoin:round;stroke-miterlimit:2;"><path d="M166.325,96.18c0.167,-2.091 0.265,-4.192 0.265,-6.332l-0,-1.91c-1.055,-41.258 -35.283,-74.623 -76.555,-74.623c-41.272,-0 -75.5,33.365 -76.555,74.623l-13.48,0c1.145,-48.591 41.43,-87.938 90.035,-87.938c48.605,-0 88.89,39.347 90.035,87.938c0.01,0.64 0.02,1.28 0.04,1.91c-0,2.15 -0.07,4.28 -0.23,6.39c-0.318,4.538 -0.986,9.045 -2,13.48l-13.92,0c0.007,-0.027 0.014,-0.053 0.022,-0.08l-39.392,0c-3.385,-0.011 -6.35,-2.344 -7.16,-5.63l-1.88,-7.65l-11.9,53.86c-0.701,3.152 -3.521,5.412 -6.75,5.41c-3.234,-0.047 -6.015,-2.382 -6.62,-5.56l-14.36,-76.31c-0.157,-0.845 -0.901,-1.464 -1.76,-1.464c-0.859,0 -1.603,0.619 -1.76,1.464l-6.49,30.79c-0.629,2.975 -3.26,5.133 -6.3,5.17l-43.52,0c0.746,2.818 1.657,5.59 2.73,8.3c11.534,29.154 39.857,48.409 71.21,48.409c31.353,-0 59.676,-19.255 71.21,-48.409l14.34,0c-12.126,36.839 -46.752,61.894 -85.535,61.894c-38.783,0 -73.409,-25.055 -85.535,-61.894c-0.91,-2.725 -1.678,-5.495 -2.3,-8.3c-1.019,-4.434 -1.687,-8.941 -2,-13.48l52.45,0c0.703,-0.002 1.316,-0.494 1.47,-1.18l13.81,-65.53c0.67,-3.188 3.512,-5.488 6.77,-5.48c3.242,0.045 6.027,2.393 6.62,5.58l14.54,77.31c0.154,0.848 0.9,1.469 1.761,1.469c0.839,0 1.571,-0.589 1.749,-1.409l9.14,-41.32c0.68,-3.085 3.392,-5.329 6.55,-5.42l0.12,0c3.137,-0.014 5.891,2.157 6.61,5.21l7.59,30.77l36.935,-0.058Z" style="fill:#34495e;"/></svg>